# Blender v2.79 (sub 0) OBJ File: ''
# www.blender.org
o Cylinder
v 0.000000 -1.000000 -1.000000
v 0.000000 1.000000 -1.000000
v 0.866025 1.000000 -0.500000
v 0.866025 -1.000000 -0.500000
v 0.866025 1.000000 0.500000
v 0.866025 -1.000000 0.500000
v 0.000000 1.000000 1.000000
v 0.000000 -1.000000 1.000000
v -0.866025 1.000000 0.500000
v -0.866025 -1.000000 0.500000
v 0.862961 3.671941 -0.421455
v 0.862960 3.671941 0.421458
v -0.866025 1.000000 -0.500000
v -0.866025 -1.000000 -0.500000
v -0.587410 3.839070 0.421458
v -0.587410 3.839070 -0.421455
v 0.137775 3.755505 -0.842912
v 0.137775 3.755505 0.842914
v -0.417735 10.844871 -0.611451
v 0.101297 10.949816 -0.305724
v -0.936767 10.739925 -0.305724
v -0.417735 10.844871 0.611458
v -0.936767 10.739925 0.305731
v 0.101297 10.949816 0.305731
v -2.112837 20.387505 0.154370
v -2.112837 20.387505 -0.154359
v -1.579542 20.348291 0.154370
v -1.846189 20.367897 0.308735
v -1.846189 20.367897 -0.308724
v -1.579542 20.348291 -0.154359
v -0.705586 31.695557 -0.054406
v -0.627242 31.643162 -0.108821
v -0.627242 31.643162 0.108840
v -0.705586 31.695557 0.054424
v -0.548898 31.590767 -0.054406
v -0.548898 31.590767 0.054424
v -0.960480 33.632336 0.000009
vn 0.0000 -0.6100 -0.7924
vn -0.0065 0.0286 -0.9995
vn 0.8643 0.0076 -0.5028
vn 0.6862 -0.6100 -0.3962
vn 0.8643 0.0076 0.5028
vn 0.6862 -0.6100 0.3962
vn -0.0065 0.0286 0.9995
vn 0.0000 -0.6100 0.7924
vn -0.8666 0.0487 0.4966
vn -0.6862 -0.6100 0.3962
vn 0.8703 0.0555 -0.4894
vn 0.8703 0.0555 0.4894
vn -0.8666 0.0487 -0.4966
vn -0.6862 -0.6100 -0.3962
vn 0.0000 -1.0000 -0.0000
vn -0.8607 0.0309 0.5081
vn -0.8607 0.0309 -0.5081
vn 0.0215 0.0476 -0.9986
vn 0.0215 0.0476 0.9986
vn 0.0090 0.0322 -0.9994
vn 0.8607 0.1299 -0.4923
vn -0.8618 -0.0653 -0.5030
vn 0.0090 0.0322 0.9994
vn -0.8618 -0.0653 0.5030
vn 0.8607 0.1299 0.4923
vn -0.8767 0.0080 0.4809
vn -0.8767 0.0080 -0.4809
vn 0.8554 0.0454 0.5159
vn -0.0410 0.0200 0.9989
vn -0.0410 0.0200 -0.9989
vn 0.8554 0.0454 -0.5159
vn -0.8748 -0.0081 -0.4844
vn 0.0816 0.0708 -0.9941
vn 0.0816 0.0708 0.9941
vn -0.8748 -0.0081 0.4844
vn 0.8880 0.0413 -0.4579
vn 0.8880 0.0413 0.4579
vn -0.1641 0.9864 -0.0000
s 1
f 1//1 2//2 3//3 4//4
f 4//4 3//3 5//5 6//6
f 6//6 5//5 7//7 8//8
f 8//8 7//7 9//9 10//10
f 5//5 3//3 11//11 12//12
f 10//10 9//9 13//13 14//14
f 14//14 13//13 2//2 1//1
s off
f 1//15 4//15 6//15 8//15 10//15 14//15
s 1
f 13//13 9//9 15//16 16//17
f 3//3 2//2 17//18 11//11
f 7//7 5//5 12//12 18//19
f 2//2 13//13 16//17 17//18
f 9//9 7//7 18//19 15//16
f 11//11 17//18 19//20 20//21
f 17//18 16//17 21//22 19//20
f 15//16 18//19 22//23 23//24
f 12//12 11//11 20//21 24//25
f 16//17 15//16 23//24 21//22
f 18//19 12//12 24//25 22//23
f 21//22 23//24 25//26 26//27
f 22//23 24//25 27//28 28//29
f 20//21 19//20 29//30 30//31
f 19//20 21//22 26//27 29//30
f 23//24 22//23 28//29 25//26
f 24//25 20//21 30//31 27//28
f 29//30 26//27 31//32 32//33
f 25//26 28//29 33//34 34//35
f 27//28 30//31 35//36 36//37
f 26//27 25//26 34//35 31//32
f 28//29 27//28 36//37 33//34
f 30//31 29//30 32//33 35//36
f 31//32 34//35 37//38
f 33//34 36//37 37//38
f 35//36 32//33 37//38
f 32//33 31//32 37//38
f 34//35 33//34 37//38
f 36//37 35//36 37//38
